<mxfile host="65bd71144e">
    <diagram id="iVfyl4kTxuAP8Ed5WjJP" name="ページ1">
        <mxGraphModel dx="977" dy="713" grid="1" gridSize="10" guides="1" tooltips="1" connect="1" arrows="1" fold="1" page="1" pageScale="1" pageWidth="827" pageHeight="1169" math="0" shadow="0">
            <root>
                <mxCell id="0"/>
                <mxCell id="1" parent="0"/>
                <mxCell id="116" value="UC 動画を検索、視聴&lt;br&gt;ユーザーフォロー" style="shape=umlFrame;whiteSpace=wrap;html=1;width=140;height=50;" parent="1" vertex="1">
                    <mxGeometry y="1180" width="880" height="1000" as="geometry"/>
                </mxCell>
                <mxCell id="79" value="UC サインアップ" style="shape=umlFrame;whiteSpace=wrap;html=1;width=100;height=30;" parent="1" vertex="1">
                    <mxGeometry y="670" width="930" height="460" as="geometry"/>
                </mxCell>
                <mxCell id="43" value="UC ログイン" style="shape=umlFrame;whiteSpace=wrap;html=1;width=90;height=30;" parent="1" vertex="1">
                    <mxGeometry y="35" width="910" height="550" as="geometry"/>
                </mxCell>
                <mxCell id="2" value="top.php&lt;br&gt;login_window" style="shape=umlBoundary;whiteSpace=wrap;html=1;" parent="1" vertex="1">
                    <mxGeometry x="210" y="80" width="100" height="80" as="geometry"/>
                </mxCell>
                <mxCell id="3" value="Actor" style="shape=umlActor;verticalLabelPosition=bottom;verticalAlign=top;html=1;" parent="1" vertex="1">
                    <mxGeometry x="70" y="90" width="30" height="60" as="geometry"/>
                </mxCell>
                <mxCell id="4" value="" style="endArrow=open;endFill=1;endSize=12;html=1;entryX=0.023;entryY=0.502;entryDx=0;entryDy=0;entryPerimeter=0;" parent="1" target="2" edge="1">
                    <mxGeometry width="160" relative="1" as="geometry">
                        <mxPoint x="90" y="119.5" as="sourcePoint"/>
                        <mxPoint x="200" y="120" as="targetPoint"/>
                    </mxGeometry>
                </mxCell>
                <mxCell id="10" value="" style="endArrow=open;endFill=1;endSize=12;html=1;" parent="1" source="2" target="16" edge="1">
                    <mxGeometry width="160" relative="1" as="geometry">
                        <mxPoint x="218.85000000000002" y="270" as="sourcePoint"/>
                        <mxPoint x="350" y="90" as="targetPoint"/>
                    </mxGeometry>
                </mxCell>
                <mxCell id="12" value="" style="ellipse;shape=umlControl;whiteSpace=wrap;html=1;" parent="1" vertex="1">
                    <mxGeometry x="642.5" y="320" width="70" height="80" as="geometry"/>
                </mxCell>
                <mxCell id="13" value="アカウントは存在するか？" style="text;html=1;strokeColor=none;fillColor=none;align=center;verticalAlign=middle;whiteSpace=wrap;rounded=0;" parent="1" vertex="1">
                    <mxGeometry x="603.25" y="400" width="148.5" height="20" as="geometry"/>
                </mxCell>
                <mxCell id="15" value="user_DB" style="ellipse;shape=umlEntity;whiteSpace=wrap;html=1;" parent="1" vertex="1">
                    <mxGeometry x="790" y="320" width="80" height="80" as="geometry"/>
                </mxCell>
                <mxCell id="16" value="" style="ellipse;shape=umlControl;whiteSpace=wrap;html=1;" parent="1" vertex="1">
                    <mxGeometry x="517.5" y="80" width="70" height="80" as="geometry"/>
                </mxCell>
                <mxCell id="21" value="" style="edgeStyle=none;html=1;" parent="1" source="17" target="16" edge="1">
                    <mxGeometry relative="1" as="geometry"/>
                </mxCell>
                <mxCell id="17" value="ログインボタン押す" style="text;html=1;strokeColor=none;fillColor=none;align=center;verticalAlign=middle;whiteSpace=wrap;rounded=0;" parent="1" vertex="1">
                    <mxGeometry x="490" y="160" width="125" height="20" as="geometry"/>
                </mxCell>
                <mxCell id="18" value="" style="endArrow=open;endFill=1;endSize=12;html=1;exitX=0.108;exitY=0.5;exitDx=0;exitDy=0;exitPerimeter=0;" parent="1" source="17" target="19" edge="1">
                    <mxGeometry width="160" relative="1" as="geometry">
                        <mxPoint x="282.5" y="230" as="sourcePoint"/>
                        <mxPoint x="310" y="220" as="targetPoint"/>
                    </mxGeometry>
                </mxCell>
                <mxCell id="19" value="login_popup" style="shape=umlBoundary;whiteSpace=wrap;html=1;" parent="1" vertex="1">
                    <mxGeometry x="210" y="200" width="100" height="80" as="geometry"/>
                </mxCell>
                <mxCell id="20" value="" style="endArrow=open;endFill=1;endSize=12;html=1;exitX=1.023;exitY=0.482;exitDx=0;exitDy=0;exitPerimeter=0;entryX=-0.005;entryY=0.499;entryDx=0;entryDy=0;entryPerimeter=0;" parent="1" source="19" target="22" edge="1">
                    <mxGeometry width="160" relative="1" as="geometry">
                        <mxPoint x="430" y="235" as="sourcePoint"/>
                        <mxPoint x="400" y="239" as="targetPoint"/>
                    </mxGeometry>
                </mxCell>
                <mxCell id="22" value="" style="ellipse;shape=umlControl;whiteSpace=wrap;html=1;" parent="1" vertex="1">
                    <mxGeometry x="517.5" y="200" width="70" height="80" as="geometry"/>
                </mxCell>
                <mxCell id="23" value="ユーザーIDとPW入力" style="text;html=1;strokeColor=none;fillColor=none;align=center;verticalAlign=middle;whiteSpace=wrap;rounded=0;" parent="1" vertex="1">
                    <mxGeometry x="490" y="280" width="125" height="20" as="geometry"/>
                </mxCell>
                <mxCell id="24" value="" style="endArrow=open;endFill=1;endSize=12;html=1;exitX=0.75;exitY=1;exitDx=0;exitDy=0;entryX=0.019;entryY=0.301;entryDx=0;entryDy=0;entryPerimeter=0;" parent="1" source="23" target="12" edge="1">
                    <mxGeometry width="160" relative="1" as="geometry">
                        <mxPoint x="541.15" y="319.99999999999994" as="sourcePoint"/>
                        <mxPoint x="642.4999999999999" y="321.36000000000007" as="targetPoint"/>
                    </mxGeometry>
                </mxCell>
                <mxCell id="26" value="" style="endArrow=none;html=1;exitX=0.99;exitY=0.485;exitDx=0;exitDy=0;exitPerimeter=0;" parent="1" source="12" target="15" edge="1">
                    <mxGeometry width="50" height="50" relative="1" as="geometry">
                        <mxPoint x="503.5" y="320" as="sourcePoint"/>
                        <mxPoint x="553.5" y="270" as="targetPoint"/>
                    </mxGeometry>
                </mxCell>
                <mxCell id="27" value="" style="endArrow=open;endFill=1;endSize=12;html=1;startArrow=none;" parent="1" source="33" target="36" edge="1">
                    <mxGeometry width="160" relative="1" as="geometry">
                        <mxPoint x="414" y="400" as="sourcePoint"/>
                        <mxPoint x="390" y="490" as="targetPoint"/>
                    </mxGeometry>
                </mxCell>
                <mxCell id="28" value="" style="ellipse;shape=umlControl;whiteSpace=wrap;html=1;" parent="1" vertex="1">
                    <mxGeometry x="389.25" y="320" width="70" height="80" as="geometry"/>
                </mxCell>
                <mxCell id="29" value="" style="endArrow=open;endFill=1;endSize=12;html=1;exitX=-0.057;exitY=0.557;exitDx=0;exitDy=0;exitPerimeter=0;startArrow=none;" parent="1" source="30" target="28" edge="1">
                    <mxGeometry width="160" relative="1" as="geometry">
                        <mxPoint x="674.5" y="430" as="sourcePoint"/>
                        <mxPoint x="493.5" y="365" as="targetPoint"/>
                    </mxGeometry>
                </mxCell>
                <mxCell id="31" value="ログインエラー表示" style="text;html=1;strokeColor=none;fillColor=none;align=center;verticalAlign=middle;whiteSpace=wrap;rounded=0;" parent="1" vertex="1">
                    <mxGeometry x="350" y="400" width="148.5" height="20" as="geometry"/>
                </mxCell>
                <mxCell id="32" value="" style="endArrow=open;endFill=1;endSize=12;html=1;entryX=0.781;entryY=0.949;entryDx=0;entryDy=0;entryPerimeter=0;exitX=0.223;exitY=0.215;exitDx=0;exitDy=0;exitPerimeter=0;" parent="1" source="28" target="19" edge="1">
                    <mxGeometry width="160" relative="1" as="geometry">
                        <mxPoint x="571" y="430" as="sourcePoint"/>
                        <mxPoint x="480" y="500" as="targetPoint"/>
                    </mxGeometry>
                </mxCell>
                <mxCell id="33" value="Yes" style="text;html=1;strokeColor=none;fillColor=none;align=center;verticalAlign=middle;whiteSpace=wrap;rounded=0;" parent="1" vertex="1">
                    <mxGeometry x="615" y="440" width="30" height="20" as="geometry"/>
                </mxCell>
                <mxCell id="34" value="" style="endArrow=none;endFill=1;endSize=12;html=1;" parent="1" source="13" target="33" edge="1">
                    <mxGeometry width="160" relative="1" as="geometry">
                        <mxPoint x="664.5" y="420" as="sourcePoint"/>
                        <mxPoint x="573.5" y="490" as="targetPoint"/>
                    </mxGeometry>
                </mxCell>
                <mxCell id="30" value="No" style="text;html=1;strokeColor=none;fillColor=none;align=center;verticalAlign=middle;whiteSpace=wrap;rounded=0;" parent="1" vertex="1">
                    <mxGeometry x="553.5" y="360" width="29.5" height="20" as="geometry"/>
                </mxCell>
                <mxCell id="35" value="" style="endArrow=none;endFill=1;endSize=12;html=1;exitX=-0.057;exitY=0.557;exitDx=0;exitDy=0;exitPerimeter=0;" parent="1" source="12" target="30" edge="1">
                    <mxGeometry width="160" relative="1" as="geometry">
                        <mxPoint x="638.51" y="364.55999999999995" as="sourcePoint"/>
                        <mxPoint x="493.5" y="365" as="targetPoint"/>
                    </mxGeometry>
                </mxCell>
                <mxCell id="36" value="" style="ellipse;shape=umlControl;whiteSpace=wrap;html=1;" parent="1" vertex="1">
                    <mxGeometry x="389.25" y="460" width="70" height="80" as="geometry"/>
                </mxCell>
                <mxCell id="37" value="Layout::ログインを表示" style="text;html=1;strokeColor=none;fillColor=none;align=center;verticalAlign=middle;whiteSpace=wrap;rounded=0;" parent="1" vertex="1">
                    <mxGeometry x="350" y="540" width="148.5" height="20" as="geometry"/>
                </mxCell>
                <mxCell id="38" value="top.php" style="shape=umlBoundary;whiteSpace=wrap;html=1;" parent="1" vertex="1">
                    <mxGeometry x="210" y="390" width="100" height="80" as="geometry"/>
                </mxCell>
                <mxCell id="39" value="Layout::ログイン" style="text;html=1;strokeColor=none;fillColor=none;align=center;verticalAlign=middle;whiteSpace=wrap;rounded=0;" parent="1" vertex="1">
                    <mxGeometry x="210" y="470" width="114.25" height="20" as="geometry"/>
                </mxCell>
                <mxCell id="40" value="" style="endArrow=open;endFill=1;endSize=12;html=1;entryX=1.028;entryY=0.665;entryDx=0;entryDy=0;entryPerimeter=0;exitX=0.031;exitY=0.424;exitDx=0;exitDy=0;exitPerimeter=0;" parent="1" source="36" target="38" edge="1">
                    <mxGeometry width="160" relative="1" as="geometry">
                        <mxPoint x="406.7599999999999" y="459.99999999999994" as="sourcePoint"/>
                        <mxPoint x="290.0000000000001" y="398.7200000000001" as="targetPoint"/>
                    </mxGeometry>
                </mxCell>
                <mxCell id="41" value="" style="endArrow=none;html=1;exitX=-0.034;exitY=0.49;exitDx=0;exitDy=0;exitPerimeter=0;" parent="1" source="19" target="3" edge="1">
                    <mxGeometry width="50" height="50" relative="1" as="geometry">
                        <mxPoint x="260" y="380" as="sourcePoint"/>
                        <mxPoint x="120" y="170" as="targetPoint"/>
                    </mxGeometry>
                </mxCell>
                <mxCell id="42" value="" style="endArrow=open;endFill=1;endSize=12;html=1;exitX=-0.048;exitY=0.499;exitDx=0;exitDy=0;exitPerimeter=0;" parent="1" source="38" target="3" edge="1">
                    <mxGeometry width="160" relative="1" as="geometry">
                        <mxPoint x="210" y="360" as="sourcePoint"/>
                        <mxPoint x="370" y="360" as="targetPoint"/>
                    </mxGeometry>
                </mxCell>
                <mxCell id="44" value="Actor" style="shape=umlActor;verticalLabelPosition=bottom;verticalAlign=top;html=1;" parent="1" vertex="1">
                    <mxGeometry x="70" y="750" width="30" height="60" as="geometry"/>
                </mxCell>
                <mxCell id="45" value="top.php&lt;br&gt;signup_window" style="shape=umlBoundary;whiteSpace=wrap;html=1;" parent="1" vertex="1">
                    <mxGeometry x="217.13" y="710" width="100" height="80" as="geometry"/>
                </mxCell>
                <mxCell id="46" value="" style="endArrow=open;endFill=1;endSize=12;html=1;entryX=-0.013;entryY=0.501;entryDx=0;entryDy=0;entryPerimeter=0;exitX=0.5;exitY=0.5;exitDx=0;exitDy=0;exitPerimeter=0;" parent="1" source="44" target="45" edge="1">
                    <mxGeometry width="160" relative="1" as="geometry">
                        <mxPoint x="160" y="750" as="sourcePoint"/>
                        <mxPoint x="242.30000000000007" y="620.66" as="targetPoint"/>
                    </mxGeometry>
                </mxCell>
                <mxCell id="48" value="" style="endArrow=open;endFill=1;endSize=12;html=1;exitX=0.992;exitY=0.584;exitDx=0;exitDy=0;exitPerimeter=0;" parent="1" source="45" target="52" edge="1">
                    <mxGeometry width="160" relative="1" as="geometry">
                        <mxPoint x="340" y="750" as="sourcePoint"/>
                        <mxPoint x="357.13" y="730" as="targetPoint"/>
                    </mxGeometry>
                </mxCell>
                <mxCell id="49" value="" style="ellipse;shape=umlControl;whiteSpace=wrap;html=1;" parent="1" vertex="1">
                    <mxGeometry x="649.63" y="960" width="70" height="80" as="geometry"/>
                </mxCell>
                <mxCell id="50" value="dbにユーザー情報登録" style="text;html=1;strokeColor=none;fillColor=none;align=center;verticalAlign=middle;whiteSpace=wrap;rounded=0;" parent="1" vertex="1">
                    <mxGeometry x="620" y="1040" width="138.88" height="20" as="geometry"/>
                </mxCell>
                <mxCell id="51" value="user_DB" style="ellipse;shape=umlEntity;whiteSpace=wrap;html=1;" parent="1" vertex="1">
                    <mxGeometry x="797.13" y="960" width="80" height="80" as="geometry"/>
                </mxCell>
                <mxCell id="52" value="" style="ellipse;shape=umlControl;whiteSpace=wrap;html=1;" parent="1" vertex="1">
                    <mxGeometry x="524.63" y="720" width="70" height="80" as="geometry"/>
                </mxCell>
                <mxCell id="53" value="" style="edgeStyle=none;html=1;" parent="1" source="54" target="52" edge="1">
                    <mxGeometry relative="1" as="geometry"/>
                </mxCell>
                <mxCell id="54" value="サインアップボタン押す" style="text;html=1;strokeColor=none;fillColor=none;align=center;verticalAlign=middle;whiteSpace=wrap;rounded=0;" parent="1" vertex="1">
                    <mxGeometry x="497.13" y="800" width="142.87" height="20" as="geometry"/>
                </mxCell>
                <mxCell id="55" value="" style="endArrow=open;endFill=1;endSize=12;html=1;exitX=0;exitY=1;exitDx=0;exitDy=0;" parent="1" source="54" target="56" edge="1">
                    <mxGeometry width="160" relative="1" as="geometry">
                        <mxPoint x="289.63" y="870" as="sourcePoint"/>
                        <mxPoint x="317.13" y="860" as="targetPoint"/>
                    </mxGeometry>
                </mxCell>
                <mxCell id="56" value="signup_popup" style="shape=umlBoundary;whiteSpace=wrap;html=1;" parent="1" vertex="1">
                    <mxGeometry x="217.13" y="840" width="100" height="80" as="geometry"/>
                </mxCell>
                <mxCell id="57" value="" style="endArrow=open;endFill=1;endSize=12;html=1;exitX=1.023;exitY=0.482;exitDx=0;exitDy=0;exitPerimeter=0;entryX=-0.005;entryY=0.499;entryDx=0;entryDy=0;entryPerimeter=0;" parent="1" source="56" target="58" edge="1">
                    <mxGeometry width="160" relative="1" as="geometry">
                        <mxPoint x="437.13" y="875" as="sourcePoint"/>
                        <mxPoint x="407.13" y="879" as="targetPoint"/>
                    </mxGeometry>
                </mxCell>
                <mxCell id="58" value="" style="ellipse;shape=umlControl;whiteSpace=wrap;html=1;" parent="1" vertex="1">
                    <mxGeometry x="524.63" y="840" width="70" height="80" as="geometry"/>
                </mxCell>
                <mxCell id="59" value="ユーザーIDとユーザー名とPWを２回入力" style="text;html=1;strokeColor=none;fillColor=none;align=center;verticalAlign=middle;whiteSpace=wrap;rounded=0;" parent="1" vertex="1">
                    <mxGeometry x="498.5" y="920" width="125" height="30" as="geometry"/>
                </mxCell>
                <mxCell id="60" value="" style="endArrow=open;endFill=1;endSize=12;html=1;entryX=0.019;entryY=0.301;entryDx=0;entryDy=0;entryPerimeter=0;exitX=0.75;exitY=1;exitDx=0;exitDy=0;" parent="1" source="59" target="49" edge="1">
                    <mxGeometry width="160" relative="1" as="geometry">
                        <mxPoint x="600" y="970" as="sourcePoint"/>
                        <mxPoint x="649.6299999999999" y="961.3600000000001" as="targetPoint"/>
                    </mxGeometry>
                </mxCell>
                <mxCell id="61" value="" style="endArrow=none;html=1;exitX=0.99;exitY=0.485;exitDx=0;exitDy=0;exitPerimeter=0;" parent="1" source="49" target="51" edge="1">
                    <mxGeometry width="50" height="50" relative="1" as="geometry">
                        <mxPoint x="510.63" y="960" as="sourcePoint"/>
                        <mxPoint x="560.63" y="910" as="targetPoint"/>
                    </mxGeometry>
                </mxCell>
                <mxCell id="62" value="" style="endArrow=open;endFill=1;endSize=12;html=1;startArrow=none;exitX=-0.026;exitY=0.658;exitDx=0;exitDy=0;exitPerimeter=0;" parent="1" source="49" target="71" edge="1">
                    <mxGeometry width="160" relative="1" as="geometry">
                        <mxPoint x="622.1300000000001" y="1093.6524253327398" as="sourcePoint"/>
                        <mxPoint x="397.13" y="1130" as="targetPoint"/>
                    </mxGeometry>
                </mxCell>
                <mxCell id="71" value="" style="ellipse;shape=umlControl;whiteSpace=wrap;html=1;" parent="1" vertex="1">
                    <mxGeometry x="440.0000000000001" y="990" width="70" height="80" as="geometry"/>
                </mxCell>
                <mxCell id="72" value="Layout::ログインを表示" style="text;html=1;strokeColor=none;fillColor=none;align=center;verticalAlign=middle;whiteSpace=wrap;rounded=0;" parent="1" vertex="1">
                    <mxGeometry x="400.75" y="1070" width="148.5" height="20" as="geometry"/>
                </mxCell>
                <mxCell id="73" value="top.php" style="shape=umlBoundary;whiteSpace=wrap;html=1;" parent="1" vertex="1">
                    <mxGeometry x="217.13" y="970" width="100" height="80" as="geometry"/>
                </mxCell>
                <mxCell id="74" value="Layout::ログイン" style="text;html=1;strokeColor=none;fillColor=none;align=center;verticalAlign=middle;whiteSpace=wrap;rounded=0;" parent="1" vertex="1">
                    <mxGeometry x="217.13" y="1050" width="114.25" height="20" as="geometry"/>
                </mxCell>
                <mxCell id="75" value="" style="endArrow=open;endFill=1;endSize=12;html=1;entryX=1.028;entryY=0.665;entryDx=0;entryDy=0;entryPerimeter=0;exitX=0.031;exitY=0.424;exitDx=0;exitDy=0;exitPerimeter=0;" parent="1" source="71" target="73" edge="1">
                    <mxGeometry width="160" relative="1" as="geometry">
                        <mxPoint x="413.8899999999999" y="1100" as="sourcePoint"/>
                        <mxPoint x="297.1300000000001" y="1038.72" as="targetPoint"/>
                    </mxGeometry>
                </mxCell>
                <mxCell id="80" value="Actor" style="shape=umlActor;verticalLabelPosition=bottom;verticalAlign=top;html=1;" parent="1" vertex="1">
                    <mxGeometry x="70" y="1280" width="30" height="60" as="geometry"/>
                </mxCell>
                <mxCell id="83" value="" style="endArrow=none;html=1;exitX=-0.038;exitY=0.533;exitDx=0;exitDy=0;exitPerimeter=0;entryX=0.5;entryY=0.5;entryDx=0;entryDy=0;entryPerimeter=0;" parent="1" source="56" target="44" edge="1">
                    <mxGeometry width="50" height="50" relative="1" as="geometry">
                        <mxPoint x="176.5999999999999" y="840.0000000000002" as="sourcePoint"/>
                        <mxPoint x="70" y="735.503947368421" as="targetPoint"/>
                    </mxGeometry>
                </mxCell>
                <mxCell id="84" value="" style="endArrow=open;endFill=1;endSize=12;html=1;exitX=-0.055;exitY=0.565;exitDx=0;exitDy=0;exitPerimeter=0;entryX=1;entryY=1;entryDx=0;entryDy=0;entryPerimeter=0;" parent="1" source="73" target="44" edge="1">
                    <mxGeometry width="160" relative="1" as="geometry">
                        <mxPoint x="198.56000000000006" y="1109.92" as="sourcePoint"/>
                        <mxPoint x="89.995260712442" y="830" as="targetPoint"/>
                    </mxGeometry>
                </mxCell>
                <mxCell id="85" value="top.php&lt;br&gt;search_window" style="shape=umlBoundary;whiteSpace=wrap;html=1;" parent="1" vertex="1">
                    <mxGeometry x="210" y="1209" width="100" height="80" as="geometry"/>
                </mxCell>
                <mxCell id="86" value="" style="endArrow=open;endFill=1;endSize=12;html=1;exitX=1.028;exitY=0.488;exitDx=0;exitDy=0;exitPerimeter=0;entryX=0.026;entryY=0.646;entryDx=0;entryDy=0;entryPerimeter=0;" parent="1" source="85" target="255" edge="1">
                    <mxGeometry width="160" relative="1" as="geometry">
                        <mxPoint x="331.38000000000017" y="1239" as="sourcePoint"/>
                        <mxPoint x="510" y="1248" as="targetPoint"/>
                    </mxGeometry>
                </mxCell>
                <mxCell id="90" value="" style="group" parent="1" vertex="1" connectable="0">
                    <mxGeometry x="623.56" y="1194" width="88.94000000000005" height="110" as="geometry"/>
                </mxCell>
                <mxCell id="87" value="" style="ellipse;shape=umlControl;whiteSpace=wrap;html=1;" parent="90" vertex="1">
                    <mxGeometry x="7.1299999999999955" width="70" height="80" as="geometry"/>
                </mxCell>
                <mxCell id="88" value="タイトル、タグ&lt;br&gt;キーワード検索" style="text;html=1;strokeColor=none;fillColor=none;align=center;verticalAlign=middle;whiteSpace=wrap;rounded=0;" parent="90" vertex="1">
                    <mxGeometry y="90" width="88.94" height="20" as="geometry"/>
                </mxCell>
                <mxCell id="91" value="data_DB" style="ellipse;shape=umlEntity;whiteSpace=wrap;html=1;" parent="1" vertex="1">
                    <mxGeometry x="719.63" y="1359" width="80" height="80" as="geometry"/>
                </mxCell>
                <mxCell id="92" value="" style="endArrow=none;html=1;entryX=0;entryY=0.5;entryDx=0;entryDy=0;exitX=0.893;exitY=0.625;exitDx=0;exitDy=0;exitPerimeter=0;" parent="1" source="94" target="91" edge="1">
                    <mxGeometry width="50" height="50" relative="1" as="geometry">
                        <mxPoint x="650" y="1279" as="sourcePoint"/>
                        <mxPoint x="681.4514362914847" y="1249.3610291211141" as="targetPoint"/>
                    </mxGeometry>
                </mxCell>
                <mxCell id="94" value="" style="ellipse;shape=umlControl;whiteSpace=wrap;html=1;" parent="1" vertex="1">
                    <mxGeometry x="517.5" y="1349" width="70" height="80" as="geometry"/>
                </mxCell>
                <mxCell id="96" value="" style="edgeStyle=none;html=1;" parent="1" source="95" target="94" edge="1">
                    <mxGeometry relative="1" as="geometry"/>
                </mxCell>
                <mxCell id="106" value="" style="edgeStyle=none;html=1;" parent="1" source="95" target="94" edge="1">
                    <mxGeometry relative="1" as="geometry"/>
                </mxCell>
                <mxCell id="95" value="データが存在するか？" style="text;html=1;strokeColor=none;fillColor=none;align=center;verticalAlign=middle;whiteSpace=wrap;rounded=0;" parent="1" vertex="1">
                    <mxGeometry x="487.5" y="1429" width="130" height="20" as="geometry"/>
                </mxCell>
                <mxCell id="97" value="" style="endArrow=open;endFill=1;endSize=12;html=1;exitX=0.5;exitY=1;exitDx=0;exitDy=0;" parent="1" source="88" target="94" edge="1">
                    <mxGeometry width="160" relative="1" as="geometry">
                        <mxPoint x="322.79999999999995" y="1258.04" as="sourcePoint"/>
                        <mxPoint x="522.3599999999999" y="1248.68" as="targetPoint"/>
                    </mxGeometry>
                </mxCell>
                <mxCell id="98" value="" style="endArrow=open;endFill=1;endSize=12;html=1;exitX=0;exitY=0.25;exitDx=0;exitDy=0;startArrow=none;entryX=1.005;entryY=0.533;entryDx=0;entryDy=0;entryPerimeter=0;" parent="1" source="99" target="101" edge="1">
                    <mxGeometry width="160" relative="1" as="geometry">
                        <mxPoint x="322.79999999999995" y="1258.04" as="sourcePoint"/>
                        <mxPoint x="320" y="1369" as="targetPoint"/>
                    </mxGeometry>
                </mxCell>
                <mxCell id="99" value="No" style="text;html=1;strokeColor=none;fillColor=none;align=center;verticalAlign=middle;whiteSpace=wrap;rounded=0;" parent="1" vertex="1">
                    <mxGeometry x="410" y="1379" width="30" height="20" as="geometry"/>
                </mxCell>
                <mxCell id="100" value="" style="endArrow=none;endFill=1;endSize=12;html=1;exitX=-0.019;exitY=0.598;exitDx=0;exitDy=0;exitPerimeter=0;" parent="1" source="94" target="99" edge="1">
                    <mxGeometry width="160" relative="1" as="geometry">
                        <mxPoint x="516.1700000000001" y="1396.8400000000001" as="sourcePoint"/>
                        <mxPoint x="320" y="1369" as="targetPoint"/>
                    </mxGeometry>
                </mxCell>
                <mxCell id="101" value="top.php" style="shape=umlBoundary;whiteSpace=wrap;html=1;" parent="1" vertex="1">
                    <mxGeometry x="210" y="1329" width="100" height="80" as="geometry"/>
                </mxCell>
                <mxCell id="102" value="" style="endArrow=open;endFill=1;endSize=12;html=1;entryX=-0.025;entryY=0.517;entryDx=0;entryDy=0;entryPerimeter=0;" parent="1" source="80" target="85" edge="1">
                    <mxGeometry width="160" relative="1" as="geometry">
                        <mxPoint x="110.43999999999994" y="1319.68" as="sourcePoint"/>
                        <mxPoint x="309.9999999999999" y="1310.3200000000002" as="targetPoint"/>
                    </mxGeometry>
                </mxCell>
                <mxCell id="103" value="" style="endArrow=open;endFill=1;endSize=12;html=1;exitX=-0.025;exitY=0.529;exitDx=0;exitDy=0;exitPerimeter=0;" parent="1" source="101" target="80" edge="1">
                    <mxGeometry width="160" relative="1" as="geometry">
                        <mxPoint x="110" y="1320.166530612245" as="sourcePoint"/>
                        <mxPoint x="217.5" y="1321.36" as="targetPoint"/>
                    </mxGeometry>
                </mxCell>
                <mxCell id="104" value="top.php" style="shape=umlBoundary;whiteSpace=wrap;html=1;" parent="1" vertex="1">
                    <mxGeometry x="210" y="1449" width="100" height="80" as="geometry"/>
                </mxCell>
                <mxCell id="107" value="" style="ellipse;shape=umlControl;whiteSpace=wrap;html=1;" parent="1" vertex="1">
                    <mxGeometry x="400.75" y="1469" width="70" height="80" as="geometry"/>
                </mxCell>
                <mxCell id="108" value="" style="endArrow=open;endFill=1;endSize=12;html=1;exitX=0;exitY=0.75;exitDx=0;exitDy=0;entryX=1.011;entryY=0.421;entryDx=0;entryDy=0;entryPerimeter=0;startArrow=none;" parent="1" source="112" target="107" edge="1">
                    <mxGeometry width="160" relative="1" as="geometry">
                        <mxPoint x="530.2199999999999" y="1568.36" as="sourcePoint"/>
                        <mxPoint x="729.7799999999999" y="1559" as="targetPoint"/>
                    </mxGeometry>
                </mxCell>
                <mxCell id="109" value="検索結果をマップに表示" style="text;html=1;strokeColor=none;fillColor=none;align=center;verticalAlign=middle;whiteSpace=wrap;rounded=0;" parent="1" vertex="1">
                    <mxGeometry x="366.13" y="1549" width="139.25" height="20" as="geometry"/>
                </mxCell>
                <mxCell id="110" value="" style="endArrow=open;endFill=1;endSize=12;html=1;exitX=-0.011;exitY=0.625;exitDx=0;exitDy=0;exitPerimeter=0;entryX=0.992;entryY=0.525;entryDx=0;entryDy=0;entryPerimeter=0;" parent="1" source="107" target="104" edge="1">
                    <mxGeometry width="160" relative="1" as="geometry">
                        <mxPoint x="373.95000000000005" y="1498.9999999999998" as="sourcePoint"/>
                        <mxPoint x="310" y="1552.0199999999998" as="targetPoint"/>
                    </mxGeometry>
                </mxCell>
                <mxCell id="111" value="Layout::検索結果" style="text;html=1;strokeColor=none;fillColor=none;align=center;verticalAlign=middle;whiteSpace=wrap;rounded=0;" parent="1" vertex="1">
                    <mxGeometry x="220.69" y="1529" width="92.87" height="20" as="geometry"/>
                </mxCell>
                <mxCell id="112" value="Yes" style="text;html=1;strokeColor=none;fillColor=none;align=center;verticalAlign=middle;whiteSpace=wrap;rounded=0;" parent="1" vertex="1">
                    <mxGeometry x="494.63" y="1469" width="30" height="20" as="geometry"/>
                </mxCell>
                <mxCell id="114" value="" style="endArrow=none;endFill=1;endSize=12;html=1;exitX=0.369;exitY=1.033;exitDx=0;exitDy=0;exitPerimeter=0;" parent="1" source="95" edge="1">
                    <mxGeometry width="160" relative="1" as="geometry">
                        <mxPoint x="535.47" y="1449.6599999999999" as="sourcePoint"/>
                        <mxPoint x="520" y="1469" as="targetPoint"/>
                    </mxGeometry>
                </mxCell>
                <mxCell id="115" value="" style="endArrow=open;endFill=1;endSize=12;html=1;exitX=-0.027;exitY=0.513;exitDx=0;exitDy=0;exitPerimeter=0;entryX=1;entryY=1;entryDx=0;entryDy=0;entryPerimeter=0;" parent="1" source="104" target="80" edge="1">
                    <mxGeometry width="160" relative="1" as="geometry">
                        <mxPoint x="190.78000000000003" y="1510" as="sourcePoint"/>
                        <mxPoint x="100.00000000000006" y="1482" as="targetPoint"/>
                    </mxGeometry>
                </mxCell>
                <mxCell id="117" value="" style="ellipse;shape=umlControl;whiteSpace=wrap;html=1;" parent="1" vertex="1">
                    <mxGeometry x="389.26" y="1580" width="70" height="80" as="geometry"/>
                </mxCell>
                <mxCell id="118" value="" style="endArrow=open;endFill=1;endSize=12;html=1;exitX=0.937;exitY=0.779;exitDx=0;exitDy=0;exitPerimeter=0;entryX=0.013;entryY=0.525;entryDx=0;entryDy=0;entryPerimeter=0;" parent="1" source="104" target="117" edge="1">
                    <mxGeometry width="160" relative="1" as="geometry">
                        <mxPoint x="370.78000000000003" y="1654" as="sourcePoint"/>
                        <mxPoint x="280.00000000000006" y="1626" as="targetPoint"/>
                    </mxGeometry>
                </mxCell>
                <mxCell id="119" value="ピンにカーソルを&lt;br&gt;ホバーし動画を探す" style="text;html=1;strokeColor=none;fillColor=none;align=center;verticalAlign=middle;whiteSpace=wrap;rounded=0;" parent="1" vertex="1">
                    <mxGeometry x="363.65" y="1660" width="121.19" height="30" as="geometry"/>
                </mxCell>
                <mxCell id="120" value="" style="ellipse;shape=umlControl;whiteSpace=wrap;html=1;" parent="1" vertex="1">
                    <mxGeometry x="572.5" y="1569" width="70" height="80" as="geometry"/>
                </mxCell>
                <mxCell id="121" value="" style="endArrow=open;endFill=1;endSize=12;html=1;exitX=1.049;exitY=0.652;exitDx=0;exitDy=0;exitPerimeter=0;entryX=-0.014;entryY=0.665;entryDx=0;entryDy=0;entryPerimeter=0;" parent="1" source="117" target="120" edge="1">
                    <mxGeometry width="160" relative="1" as="geometry">
                        <mxPoint x="418.91" y="1529.0000000000002" as="sourcePoint"/>
                        <mxPoint x="505.3800000000001" y="1639.68" as="targetPoint"/>
                    </mxGeometry>
                </mxCell>
                <mxCell id="122" value="見たい動画のピンをクリック" style="text;html=1;strokeColor=none;fillColor=none;align=center;verticalAlign=middle;whiteSpace=wrap;rounded=0;" parent="1" vertex="1">
                    <mxGeometry x="533.57" y="1650" width="166.75" height="20" as="geometry"/>
                </mxCell>
                <mxCell id="123" value="" style="endArrow=open;endFill=1;endSize=12;html=1;exitX=0.25;exitY=1;exitDx=0;exitDy=0;entryX=0.513;entryY=0.05;entryDx=0;entryDy=0;entryPerimeter=0;startArrow=none;" parent="1" source="128" target="124" edge="1">
                    <mxGeometry width="160" relative="1" as="geometry">
                        <mxPoint x="494.63000000000005" y="1709.9999999999998" as="sourcePoint"/>
                        <mxPoint x="570" y="1730" as="targetPoint"/>
                    </mxGeometry>
                </mxCell>
                <mxCell id="124" value="" style="ellipse;shape=umlControl;whiteSpace=wrap;html=1;" parent="1" vertex="1">
                    <mxGeometry x="542.4999999999999" y="1800" width="70" height="80" as="geometry"/>
                </mxCell>
                <mxCell id="125" value="動画情報取得" style="text;html=1;strokeColor=none;fillColor=none;align=center;verticalAlign=middle;whiteSpace=wrap;rounded=0;" parent="1" vertex="1">
                    <mxGeometry x="512.4999999999999" y="1880" width="130" height="20" as="geometry"/>
                </mxCell>
                <mxCell id="126" value="data_DB" style="ellipse;shape=umlEntity;whiteSpace=wrap;html=1;" parent="1" vertex="1">
                    <mxGeometry x="729.63" y="1770" width="80" height="80" as="geometry"/>
                </mxCell>
                <mxCell id="127" value="" style="endArrow=none;html=1;entryX=0;entryY=0.5;entryDx=0;entryDy=0;exitX=0.985;exitY=0.504;exitDx=0;exitDy=0;exitPerimeter=0;" parent="1" source="124" target="126" edge="1">
                    <mxGeometry width="50" height="50" relative="1" as="geometry">
                        <mxPoint x="640" y="1820" as="sourcePoint"/>
                        <mxPoint x="753.19" y="1800" as="targetPoint"/>
                    </mxGeometry>
                </mxCell>
                <mxCell id="128" value="or" style="text;html=1;strokeColor=none;fillColor=none;align=center;verticalAlign=middle;whiteSpace=wrap;rounded=0;" parent="1" vertex="1">
                    <mxGeometry x="587.5" y="1710" width="25" height="20" as="geometry"/>
                </mxCell>
                <mxCell id="129" value="" style="endArrow=none;endFill=1;endSize=12;html=1;entryX=0.513;entryY=0.05;entryDx=0;entryDy=0;entryPerimeter=0;exitX=0.454;exitY=1.1;exitDx=0;exitDy=0;exitPerimeter=0;" parent="1" source="122" target="128" edge="1">
                    <mxGeometry width="160" relative="1" as="geometry">
                        <mxPoint x="607" y="1690" as="sourcePoint"/>
                        <mxPoint x="569.48" y="1734" as="targetPoint"/>
                    </mxGeometry>
                </mxCell>
                <mxCell id="130" value="" style="ellipse;shape=umlControl;whiteSpace=wrap;html=1;" parent="1" vertex="1">
                    <mxGeometry x="339.99999999999994" y="1800" width="70" height="80" as="geometry"/>
                </mxCell>
                <mxCell id="131" value="動画情報を表示" style="text;html=1;strokeColor=none;fillColor=none;align=center;verticalAlign=middle;whiteSpace=wrap;rounded=0;" parent="1" vertex="1">
                    <mxGeometry x="313.55999999999995" y="1880" width="130" height="20" as="geometry"/>
                </mxCell>
                <mxCell id="132" value="top.php&lt;br&gt;view_window" style="shape=umlBoundary;whiteSpace=wrap;html=1;" parent="1" vertex="1">
                    <mxGeometry x="210" y="1670" width="100" height="80" as="geometry"/>
                </mxCell>
                <mxCell id="134" value="" style="endArrow=open;endFill=1;endSize=12;html=1;entryX=1.004;entryY=0.513;entryDx=0;entryDy=0;entryPerimeter=0;exitX=-0.015;exitY=0.525;exitDx=0;exitDy=0;exitPerimeter=0;" parent="1" source="124" target="130" edge="1">
                    <mxGeometry width="160" relative="1" as="geometry">
                        <mxPoint x="541" y="1810" as="sourcePoint"/>
                        <mxPoint x="469.52" y="1795.04" as="targetPoint"/>
                    </mxGeometry>
                </mxCell>
                <mxCell id="137" value="ifram拡大と動画リロード" style="text;html=1;strokeColor=none;fillColor=none;align=center;verticalAlign=middle;whiteSpace=wrap;rounded=0;" parent="1" vertex="1">
                    <mxGeometry x="371.62000000000006" y="1780" width="166.75" height="20" as="geometry"/>
                </mxCell>
                <mxCell id="139" value="" style="endArrow=open;endFill=1;endSize=12;html=1;entryX=0.432;entryY=0.975;entryDx=0;entryDy=0;entryPerimeter=0;exitX=-0.024;exitY=0.363;exitDx=0;exitDy=0;exitPerimeter=0;" parent="1" source="130" target="132" edge="1">
                    <mxGeometry width="160" relative="1" as="geometry">
                        <mxPoint x="310" y="1815.48" as="sourcePoint"/>
                        <mxPoint x="187.75999999999996" y="1824.52" as="targetPoint"/>
                    </mxGeometry>
                </mxCell>
                <mxCell id="140" value="" style="endArrow=open;endFill=1;endSize=12;html=1;exitX=-0.017;exitY=0.475;exitDx=0;exitDy=0;exitPerimeter=0;" parent="1" source="132" edge="1">
                    <mxGeometry width="160" relative="1" as="geometry">
                        <mxPoint x="198.31999999999994" y="1704.52" as="sourcePoint"/>
                        <mxPoint x="100" y="1360" as="targetPoint"/>
                    </mxGeometry>
                </mxCell>
                <mxCell id="143" value="" style="ellipse;shape=umlControl;whiteSpace=wrap;html=1;" parent="1" vertex="1">
                    <mxGeometry x="414" y="1700" width="70" height="80" as="geometry"/>
                </mxCell>
                <mxCell id="145" value="" style="endArrow=open;endFill=1;endSize=12;html=1;exitX=0.25;exitY=1;exitDx=0;exitDy=0;entryX=0.872;entryY=0.271;entryDx=0;entryDy=0;entryPerimeter=0;startArrow=none;" parent="1" source="147" target="143" edge="1">
                    <mxGeometry width="160" relative="1" as="geometry">
                        <mxPoint x="472.6899999999998" y="1642.1600000000003" as="sourcePoint"/>
                        <mxPoint x="581.52" y="1632.1999999999998" as="targetPoint"/>
                    </mxGeometry>
                </mxCell>
                <mxCell id="146" value="" style="endArrow=open;endFill=1;endSize=12;html=1;exitX=-0.003;exitY=0.475;exitDx=0;exitDy=0;entryX=0.988;entryY=0.428;entryDx=0;entryDy=0;entryPerimeter=0;exitPerimeter=0;" parent="1" source="143" target="132" edge="1">
                    <mxGeometry width="160" relative="1" as="geometry">
                        <mxPoint x="360.1500000000002" y="1725" as="sourcePoint"/>
                        <mxPoint x="301.62" y="1781.6800000000003" as="targetPoint"/>
                    </mxGeometry>
                </mxCell>
                <mxCell id="147" value="or" style="text;html=1;strokeColor=none;fillColor=none;align=center;verticalAlign=middle;whiteSpace=wrap;rounded=0;" parent="1" vertex="1">
                    <mxGeometry x="490.15999999999997" y="1680" width="25" height="20" as="geometry"/>
                </mxCell>
                <mxCell id="148" value="" style="endArrow=none;endFill=1;endSize=12;html=1;exitX=0;exitY=0.75;exitDx=0;exitDy=0;entryX=0.872;entryY=0.271;entryDx=0;entryDy=0;entryPerimeter=0;" parent="1" source="122" target="147" edge="1">
                    <mxGeometry width="160" relative="1" as="geometry">
                        <mxPoint x="533.5700000000002" y="1665" as="sourcePoint"/>
                        <mxPoint x="475.03999999999996" y="1721.6800000000003" as="targetPoint"/>
                    </mxGeometry>
                </mxCell>
                <mxCell id="203" value="" style="ellipse;shape=umlControl;whiteSpace=wrap;html=1;" parent="1" vertex="1">
                    <mxGeometry x="232.12999999999994" y="1910" width="70" height="80" as="geometry"/>
                </mxCell>
                <mxCell id="204" value="" style="endArrow=open;endFill=1;endSize=12;html=1;entryX=0.399;entryY=0.154;entryDx=0;entryDy=0;entryPerimeter=0;exitX=0.263;exitY=0.857;exitDx=0;exitDy=0;exitPerimeter=0;" parent="1" source="132" target="203" edge="1">
                    <mxGeometry width="160" relative="1" as="geometry">
                        <mxPoint x="295.1200000000002" y="1881.04" as="sourcePoint"/>
                        <mxPoint x="209.99999999999983" y="1800" as="targetPoint"/>
                    </mxGeometry>
                </mxCell>
                <mxCell id="205" value="動画のユーザーをフォロー" style="text;html=1;strokeColor=none;fillColor=none;align=center;verticalAlign=middle;whiteSpace=wrap;rounded=0;" parent="1" vertex="1">
                    <mxGeometry x="193.2" y="1990" width="147.87" height="20" as="geometry"/>
                </mxCell>
                <mxCell id="206" value="" style="ellipse;shape=umlControl;whiteSpace=wrap;html=1;" parent="1" vertex="1">
                    <mxGeometry x="419.99999999999994" y="1920" width="70" height="80" as="geometry"/>
                </mxCell>
                <mxCell id="207" value="" style="endArrow=open;endFill=1;endSize=12;html=1;entryX=-0.071;entryY=0.485;entryDx=0;entryDy=0;entryPerimeter=0;exitX=1.006;exitY=0.594;exitDx=0;exitDy=0;exitPerimeter=0;" parent="1" source="203" target="206" edge="1">
                    <mxGeometry width="160" relative="1" as="geometry">
                        <mxPoint x="246.29999999999973" y="1748.56" as="sourcePoint"/>
                        <mxPoint x="270.05999999999995" y="1932.3200000000002" as="targetPoint"/>
                    </mxGeometry>
                </mxCell>
                <mxCell id="208" value="非同期通信" style="text;html=1;strokeColor=none;fillColor=none;align=center;verticalAlign=middle;whiteSpace=wrap;rounded=0;" parent="1" vertex="1">
                    <mxGeometry x="413.21" y="2000" width="83.57" height="20" as="geometry"/>
                </mxCell>
                <mxCell id="209" value="follow_DB" style="ellipse;shape=umlEntity;whiteSpace=wrap;html=1;" parent="1" vertex="1">
                    <mxGeometry x="623.5" y="1930" width="80" height="80" as="geometry"/>
                </mxCell>
                <mxCell id="210" value="" style="endArrow=none;html=1;exitX=0.98;exitY=0.584;exitDx=0;exitDy=0;exitPerimeter=0;entryX=0;entryY=0.5;entryDx=0;entryDy=0;" parent="1" source="206" target="209" edge="1">
                    <mxGeometry width="50" height="50" relative="1" as="geometry">
                        <mxPoint x="517.5000000000002" y="1975.1599999999996" as="sourcePoint"/>
                        <mxPoint x="635.6800000000001" y="1944.84" as="targetPoint"/>
                    </mxGeometry>
                </mxCell>
                <mxCell id="211" value="フォロー情報" style="text;html=1;strokeColor=none;fillColor=none;align=center;verticalAlign=middle;whiteSpace=wrap;rounded=0;" parent="1" vertex="1">
                    <mxGeometry x="598.4999999999999" y="2010" width="130" height="20" as="geometry"/>
                </mxCell>
                <mxCell id="212" value="" style="ellipse;shape=umlControl;whiteSpace=wrap;html=1;" parent="1" vertex="1">
                    <mxGeometry x="150.68999999999994" y="2050" width="70" height="80" as="geometry"/>
                </mxCell>
                <mxCell id="213" value="" style="endArrow=open;endFill=1;endSize=12;html=1;entryX=0.994;entryY=0.568;entryDx=0;entryDy=0;entryPerimeter=0;exitX=0.075;exitY=0.834;exitDx=0;exitDy=0;exitPerimeter=0;" parent="1" source="206" target="212" edge="1">
                    <mxGeometry width="160" relative="1" as="geometry">
                        <mxPoint x="312.5499999999997" y="1967.52" as="sourcePoint"/>
                        <mxPoint x="425.03" y="1968.8000000000002" as="targetPoint"/>
                    </mxGeometry>
                </mxCell>
                <mxCell id="214" value="フォロー後の結果表示" style="text;html=1;strokeColor=none;fillColor=none;align=center;verticalAlign=middle;whiteSpace=wrap;rounded=0;" parent="1" vertex="1">
                    <mxGeometry x="120.69" y="2130" width="130" height="20" as="geometry"/>
                </mxCell>
                <mxCell id="215" value="top.php&lt;br&gt;view_window" style="shape=umlBoundary;whiteSpace=wrap;html=1;" parent="1" vertex="1">
                    <mxGeometry x="70" y="1790" width="100" height="80" as="geometry"/>
                </mxCell>
                <mxCell id="216" value="" style="endArrow=open;endFill=1;endSize=12;html=1;exitX=0.279;exitY=0.133;exitDx=0;exitDy=0;exitPerimeter=0;entryX=0.595;entryY=1.04;entryDx=0;entryDy=0;entryPerimeter=0;" parent="1" source="212" target="215" edge="1">
                    <mxGeometry width="160" relative="1" as="geometry">
                        <mxPoint x="435.2500000000002" y="1996.7200000000003" as="sourcePoint"/>
                        <mxPoint x="230.26999999999998" y="2105.44" as="targetPoint"/>
                    </mxGeometry>
                </mxCell>
                <mxCell id="217" value="" style="endArrow=open;endFill=1;endSize=12;html=1;exitX=-0.022;exitY=0.274;exitDx=0;exitDy=0;exitPerimeter=0;entryX=0;entryY=1;entryDx=0;entryDy=0;entryPerimeter=0;" parent="1" source="215" target="80" edge="1">
                    <mxGeometry width="160" relative="1" as="geometry">
                        <mxPoint x="100.00000000000003" y="1753.4400000000003" as="sourcePoint"/>
                        <mxPoint x="89.27999999999977" y="1555.9999999999998" as="targetPoint"/>
                    </mxGeometry>
                </mxCell>
                <mxCell id="218" value="Actor" style="shape=umlActor;verticalLabelPosition=bottom;verticalAlign=top;html=1;" parent="1" vertex="1">
                    <mxGeometry x="70" y="2290" width="30" height="60" as="geometry"/>
                </mxCell>
                <mxCell id="219" value="top.php" style="shape=umlBoundary;whiteSpace=wrap;html=1;" parent="1" vertex="1">
                    <mxGeometry x="213.56" y="2280" width="100" height="80" as="geometry"/>
                </mxCell>
                <mxCell id="220" value="" style="ellipse;shape=umlControl;whiteSpace=wrap;html=1;" parent="1" vertex="1">
                    <mxGeometry x="438.03" y="2280" width="70" height="80" as="geometry"/>
                </mxCell>
                <mxCell id="221" value="" style="endArrow=open;endFill=1;endSize=12;html=1;entryX=-0.013;entryY=0.482;entryDx=0;entryDy=0;entryPerimeter=0;exitX=0.986;exitY=0.482;exitDx=0;exitDy=0;exitPerimeter=0;" parent="1" source="219" target="220" edge="1">
                    <mxGeometry width="160" relative="1" as="geometry">
                        <mxPoint x="318.7599999999997" y="2320" as="sourcePoint"/>
                        <mxPoint x="431.23999999999995" y="2321.28" as="targetPoint"/>
                    </mxGeometry>
                </mxCell>
                <mxCell id="222" value="マイページ" style="text;html=1;strokeColor=none;fillColor=none;align=center;verticalAlign=middle;whiteSpace=wrap;rounded=0;" parent="1" vertex="1">
                    <mxGeometry x="433.21" y="2360" width="83.57" height="20" as="geometry"/>
                </mxCell>
                <mxCell id="223" value="user_DB" style="ellipse;shape=umlEntity;whiteSpace=wrap;html=1;" parent="1" vertex="1">
                    <mxGeometry x="660" y="2280" width="80" height="80" as="geometry"/>
                </mxCell>
                <mxCell id="224" value="" style="endArrow=none;html=1;entryX=0;entryY=0.5;entryDx=0;entryDy=0;exitX=0.969;exitY=0.485;exitDx=0;exitDy=0;exitPerimeter=0;" parent="1" source="220" target="223" edge="1">
                    <mxGeometry width="50" height="50" relative="1" as="geometry">
                        <mxPoint x="520" y="2330" as="sourcePoint"/>
                        <mxPoint x="640" y="2323.2799999999997" as="targetPoint"/>
                    </mxGeometry>
                </mxCell>
                <mxCell id="225" value="" style="ellipse;shape=umlControl;whiteSpace=wrap;html=1;" parent="1" vertex="1">
                    <mxGeometry x="553.51" y="2410" width="70" height="80" as="geometry"/>
                </mxCell>
                <mxCell id="226" value="ユーザー情報&lt;br&gt;を表示" style="text;html=1;strokeColor=none;fillColor=none;align=center;verticalAlign=middle;whiteSpace=wrap;rounded=0;" parent="1" vertex="1">
                    <mxGeometry x="546.72" y="2490" width="83.57" height="30" as="geometry"/>
                </mxCell>
                <mxCell id="227" value="" style="endArrow=open;endFill=1;endSize=12;html=1;entryX=0.332;entryY=0.154;entryDx=0;entryDy=0;entryPerimeter=0;exitX=0.963;exitY=0.873;exitDx=0;exitDy=0;exitPerimeter=0;" parent="1" source="220" target="225" edge="1">
                    <mxGeometry width="160" relative="1" as="geometry">
                        <mxPoint x="322.1599999999996" y="2328.56" as="sourcePoint"/>
                        <mxPoint x="447.1200000000001" y="2328.56" as="targetPoint"/>
                    </mxGeometry>
                </mxCell>
                <mxCell id="228" value="mypage.php" style="shape=umlBoundary;whiteSpace=wrap;html=1;" parent="1" vertex="1">
                    <mxGeometry x="213.56" y="2410" width="100" height="80" as="geometry"/>
                </mxCell>
                <mxCell id="229" value="Layout::ユーザー情報" style="text;html=1;strokeColor=none;fillColor=none;align=center;verticalAlign=middle;whiteSpace=wrap;rounded=0;" parent="1" vertex="1">
                    <mxGeometry x="212.47" y="2495" width="123.57" height="20" as="geometry"/>
                </mxCell>
                <mxCell id="230" value="" style="endArrow=open;endFill=1;endSize=12;html=1;entryX=0.984;entryY=0.563;entryDx=0;entryDy=0;entryPerimeter=0;exitX=0.013;exitY=0.626;exitDx=0;exitDy=0;exitPerimeter=0;" parent="1" source="225" target="228" edge="1">
                    <mxGeometry width="160" relative="1" as="geometry">
                        <mxPoint x="520" y="2470" as="sourcePoint"/>
                        <mxPoint x="447.1200000000001" y="2328.56" as="targetPoint"/>
                    </mxGeometry>
                </mxCell>
                <mxCell id="231" value="" style="endArrow=open;endFill=1;endSize=12;html=1;exitX=1;exitY=0.3333333333333333;exitDx=0;exitDy=0;exitPerimeter=0;entryX=-0.016;entryY=0.506;entryDx=0;entryDy=0;entryPerimeter=0;" parent="1" source="218" target="219" edge="1">
                    <mxGeometry width="160" relative="1" as="geometry">
                        <mxPoint x="322.1599999999996" y="2328.56" as="sourcePoint"/>
                        <mxPoint x="200" y="2320" as="targetPoint"/>
                    </mxGeometry>
                </mxCell>
                <mxCell id="232" value="" style="endArrow=open;endFill=1;endSize=12;html=1;exitX=-0.029;exitY=0.475;exitDx=0;exitDy=0;exitPerimeter=0;entryX=1;entryY=0.3333333333333333;entryDx=0;entryDy=0;entryPerimeter=0;" parent="1" source="228" target="218" edge="1">
                    <mxGeometry width="160" relative="1" as="geometry">
                        <mxPoint x="81.23999999999977" y="2440" as="sourcePoint"/>
                        <mxPoint x="110" y="2330" as="targetPoint"/>
                    </mxGeometry>
                </mxCell>
                <mxCell id="233" value="" style="ellipse;shape=umlControl;whiteSpace=wrap;html=1;" parent="1" vertex="1">
                    <mxGeometry x="389.25" y="2570" width="70" height="80" as="geometry"/>
                </mxCell>
                <mxCell id="234" value="" style="ellipse;shape=umlControl;whiteSpace=wrap;html=1;" parent="1" vertex="1">
                    <mxGeometry x="553.51" y="2570" width="70" height="80" as="geometry"/>
                </mxCell>
                <mxCell id="235" value="" style="endArrow=open;endFill=1;endSize=12;html=1;exitX=0.973;exitY=0.706;exitDx=0;exitDy=0;exitPerimeter=0;entryX=0.345;entryY=0.092;entryDx=0;entryDy=0;entryPerimeter=0;" parent="1" source="228" target="233" edge="1">
                    <mxGeometry width="160" relative="1" as="geometry">
                        <mxPoint x="564.4200000000003" y="2470.08" as="sourcePoint"/>
                        <mxPoint x="321.9599999999998" y="2465.0400000000004" as="targetPoint"/>
                    </mxGeometry>
                </mxCell>
                <mxCell id="236" value="ユーザー情報の編集" style="text;html=1;strokeColor=none;fillColor=none;align=center;verticalAlign=middle;whiteSpace=wrap;rounded=0;" parent="1" vertex="1">
                    <mxGeometry x="360.43" y="2650" width="123.57" height="20" as="geometry"/>
                </mxCell>
                <mxCell id="238" value="" style="edgeStyle=none;html=1;" parent="1" source="237" target="234" edge="1">
                    <mxGeometry relative="1" as="geometry"/>
                </mxCell>
                <mxCell id="237" value="編集データ保存" style="text;html=1;strokeColor=none;fillColor=none;align=center;verticalAlign=middle;whiteSpace=wrap;rounded=0;" parent="1" vertex="1">
                    <mxGeometry x="526.72" y="2650" width="123.57" height="20" as="geometry"/>
                </mxCell>
                <mxCell id="240" value="" style="endArrow=open;endFill=1;endSize=12;html=1;exitX=1.095;exitY=0.555;exitDx=0;exitDy=0;exitPerimeter=0;entryX=0.016;entryY=0.586;entryDx=0;entryDy=0;entryPerimeter=0;" parent="1" source="233" target="234" edge="1">
                    <mxGeometry width="160" relative="1" as="geometry">
                        <mxPoint x="387.4599999999997" y="2476.4800000000005" as="sourcePoint"/>
                        <mxPoint x="489.9999999999999" y="2587.36" as="targetPoint"/>
                    </mxGeometry>
                </mxCell>
                <mxCell id="241" value="user_DB" style="ellipse;shape=umlEntity;whiteSpace=wrap;html=1;" parent="1" vertex="1">
                    <mxGeometry x="728.5" y="2570" width="80" height="80" as="geometry"/>
                </mxCell>
                <mxCell id="245" value="" style="endArrow=none;html=1;entryX=0;entryY=0.5;entryDx=0;entryDy=0;exitX=0.98;exitY=0.571;exitDx=0;exitDy=0;exitPerimeter=0;" parent="1" source="234" target="241" edge="1">
                    <mxGeometry width="50" height="50" relative="1" as="geometry">
                        <mxPoint x="558.3599999999999" y="2550" as="sourcePoint"/>
                        <mxPoint x="712.5000000000002" y="2551.2" as="targetPoint"/>
                    </mxGeometry>
                </mxCell>
                <mxCell id="246" value="" style="ellipse;shape=umlControl;whiteSpace=wrap;html=1;" parent="1" vertex="1">
                    <mxGeometry x="387.22" y="2700" width="70" height="80" as="geometry"/>
                </mxCell>
                <mxCell id="247" value="更新データの表示" style="text;html=1;strokeColor=none;fillColor=none;align=center;verticalAlign=middle;whiteSpace=wrap;rounded=0;" parent="1" vertex="1">
                    <mxGeometry x="360.43" y="2780" width="123.57" height="20" as="geometry"/>
                </mxCell>
                <mxCell id="248" value="" style="endArrow=open;endFill=1;endSize=12;html=1;exitX=0.061;exitY=0.758;exitDx=0;exitDy=0;exitPerimeter=0;entryX=0.972;entryY=0.43;entryDx=0;entryDy=0;entryPerimeter=0;" parent="1" source="234" target="246" edge="1">
                    <mxGeometry width="160" relative="1" as="geometry">
                        <mxPoint x="475.89999999999986" y="2624.4" as="sourcePoint"/>
                        <mxPoint x="564.6300000000001" y="2626.88" as="targetPoint"/>
                    </mxGeometry>
                </mxCell>
                <mxCell id="249" value="mypage.php" style="shape=umlBoundary;whiteSpace=wrap;html=1;" parent="1" vertex="1">
                    <mxGeometry x="217.13" y="2590" width="100" height="80" as="geometry"/>
                </mxCell>
                <mxCell id="250" value="" style="endArrow=open;endFill=1;endSize=12;html=1;exitX=-0.028;exitY=0.54;exitDx=0;exitDy=0;exitPerimeter=0;entryX=0.981;entryY=0.727;entryDx=0;entryDy=0;entryPerimeter=0;" parent="1" source="246" target="249" edge="1">
                    <mxGeometry width="160" relative="1" as="geometry">
                        <mxPoint x="295.71999999999997" y="2670.0000000000005" as="sourcePoint"/>
                        <mxPoint x="193.2" y="2773.76" as="targetPoint"/>
                    </mxGeometry>
                </mxCell>
                <mxCell id="251" value="更新後のユーザー情報" style="text;html=1;strokeColor=none;fillColor=none;align=center;verticalAlign=middle;whiteSpace=wrap;rounded=0;" parent="1" vertex="1">
                    <mxGeometry x="207.81" y="2670" width="123.57" height="20" as="geometry"/>
                </mxCell>
                <mxCell id="252" value="" style="endArrow=open;endFill=1;endSize=12;html=1;exitX=-0.006;exitY=0.352;exitDx=0;exitDy=0;exitPerimeter=0;entryX=1;entryY=1;entryDx=0;entryDy=0;entryPerimeter=0;" parent="1" source="249" target="218" edge="1">
                    <mxGeometry width="160" relative="1" as="geometry">
                        <mxPoint x="210.03" y="2610.04" as="sourcePoint"/>
                        <mxPoint x="140.00000000000003" y="2515" as="targetPoint"/>
                    </mxGeometry>
                </mxCell>
                <mxCell id="253" value="カテゴリで動画検索" style="shape=umlFrame;whiteSpace=wrap;html=1;width=160;height=40;" parent="1" vertex="1">
                    <mxGeometry y="2240" width="880" height="590" as="geometry"/>
                </mxCell>
                <mxCell id="254" value="" style="group" vertex="1" connectable="0" parent="1">
                    <mxGeometry x="428.56" y="1200" width="88.94000000000005" height="110" as="geometry"/>
                </mxCell>
                <mxCell id="255" value="" style="ellipse;shape=umlControl;whiteSpace=wrap;html=1;" vertex="1" parent="254">
                    <mxGeometry x="9.469999999999995" y="-10" width="70" height="80" as="geometry"/>
                </mxCell>
                <mxCell id="256" value="座標と半径の&lt;br&gt;情報を取得" style="text;html=1;strokeColor=none;fillColor=none;align=center;verticalAlign=middle;whiteSpace=wrap;rounded=0;" vertex="1" parent="254">
                    <mxGeometry y="80" width="88.94" height="20" as="geometry"/>
                </mxCell>
                <mxCell id="257" value="" style="endArrow=open;endFill=1;endSize=12;html=1;" edge="1" parent="1" target="87">
                    <mxGeometry width="160" relative="1" as="geometry">
                        <mxPoint x="510" y="1240" as="sourcePoint"/>
                        <mxPoint x="620" y="1240" as="targetPoint"/>
                    </mxGeometry>
                </mxCell>
            </root>
        </mxGraphModel>
    </diagram>
</mxfile>